<svg width="209" height="211" viewBox="0 0 209 211" fill="none" xmlns="http://www.w3.org/2000/svg">
<style>
  .logo-path { fill: #0D0D10; }
  @media (prefers-color-scheme: dark) {
    .logo-path { fill: #FFFFFF; }
  }
</style>
<path class="logo-path" fill-rule="evenodd" clip-rule="evenodd" d="M78.148 0.00729267C78.148 0.074684 78.8427 1.28831 79.6919 2.70411C98.6498 34.3104 110.611 72.3691 114.816 114.464C116.739 133.718 116.923 157.703 115.257 172.155C115.038 174.058 114.899 175.654 114.948 175.704C114.997 175.753 116.648 175.534 118.618 175.217C126.532 173.944 137.899 172.698 149.496 171.834C158.09 171.193 181.084 171.099 187.913 171.677C194.688 172.251 202.658 173.147 206.005 173.711C207.652 173.989 209 174.19 209 174.159C209 173.777 205.942 164.067 204.274 159.15C194.683 130.891 183.713 107.48 169.577 85.1038C149.233 52.9011 123.309 27.2201 91.2603 7.51984C86.1227 4.3617 78.148 -0.207318 78.148 0.00729267ZM73.7674 35.644C73.8873 44.083 73.5465 52.2495 72.777 59.3649C69.7694 87.1744 61.3975 115.007 47.8943 142.086C37.0026 163.927 24.2892 182.608 5.25961 204.733C2.33119 208.138 -0.0354169 210.957 0.000401282 210.998C0.0362195 211.039 1.47242 210.413 3.19227 209.607C13.6214 204.719 31.6117 197.6 44.9294 193.092C61.0988 187.619 79.5688 182.638 96.2538 179.251C103.04 177.873 103.831 177.653 103.963 177.11C104.856 173.415 105.156 152.821 104.472 142.086C103.211 122.267 100.937 106.724 96.5822 88.1436C91.7361 67.4666 86.3134 52.0219 78.4047 36.3709C75.8559 31.3263 73.9841 27.7668 73.7657 27.5481C73.7025 27.4848 73.7033 31.1279 73.7674 35.644Z"/>
</svg>
